<svg xmlns="http://www.w3.org/2000/svg" version="1.1" xmlns:xlink="http://www.w3.org/1999/xlink" viewBox="0 0 8.75023097320376 3.1486805299332206"><g transform="matrix(1,0,0,1,3.8243056701617415,1.0268549134041103)"><g clip-path="url(#SvgjsClipPath1001)"><g clip-path="url(#SvgjsClipPath1000d0a7936e-8371-4f01-bfdf-34daee262520)"><path d=" M -2.038743929928623 0.005585525557420423 C -2.16906052135269 0.004499553962220015 -2.4318656473912257 0.0001556675814174957 -2.562182238815293 -0.002016275608983542 C -2.562182238815293 -0.002016275608983542 -2.5844446565169044 -0.0025592614065838015 -2.5844446565169044 -0.0025592614065838015 L -0.7833607658767763 0.30151278524957315 L -0.9723198234416737 0.8727338443250675 L -2.2657119933255405 1.1724620046004222 L -2.2657119933255405 1.1724620046004222 C -2.186436066875899 1.1713760330052216 -2.1212777711638653 1.170833047207621 -2.1212777711638653 1.170833047207621 C -1.7422736844388704 1.1670321466244191 -1.2742199269074286 1.1637742318388176 -0.8876140390160296 1.162688260243617 C -0.7969354108167828 0.8635030857658624 -0.6329536999414986 0.33083401831998804 -0.5363022279686485 0.017531213104626575 C -1.0038129997024896 0.016445241509426056 -1.5804639167539867 0.0115583693310235 -2.038743929928623 0.005585525557420423 Z" fill="#029FAE" transform="matrix(1,0,0,1,0,0)" fill-rule="nonzero"></path></g><g clip-path="url(#SvgjsClipPath1000d0a7936e-8371-4f01-bfdf-34daee262520)"><path d=" M -2.046888716892627 1.3304708717021034 C -2.1451691462582776 1.3304708717021034 -2.224988058505519 1.4075748549613434 -2.2293319448863214 1.5047693127317938 C -2.2293319448863214 1.5074842417197951 -2.2293319448863214 1.5101991707077964 -2.2293319448863214 1.513457085493398 C -2.2293319448863214 1.5275747162310056 -2.2277029874935206 1.5416923469686128 -2.224445072707919 1.5547240061110195 C -2.205440569791909 1.6356288899534617 -2.133223458711072 1.6959003134870922 -2.046345731095027 1.6959003134870922 C -1.9572960602885812 1.6959003134870922 -1.8829070060173427 1.6318279893702594 -1.866617432089334 1.5471222049446158 C -1.8644454888989332 1.5362624889926102 -1.8633595173037325 1.5248597872430043 -1.8633595173037325 1.5129140996957982 C -1.8633595173037325 1.512371113898198 -1.8633595173037325 1.512371113898198 -1.8633595173037325 1.5118281281005976 C -1.864445488898933 1.411918741342146 -1.9458933585389748 1.3304708717021034 -2.046888716892627 1.3304708717021034 Z" fill="#029FAE" transform="matrix(1,0,0,1,0,0)" fill-rule="nonzero"></path></g><g clip-path="url(#SvgjsClipPath1000d0a7936e-8371-4f01-bfdf-34daee262520)"><path d=" M -1.3209167055010531 1.3304708717021034 C -1.4219120638547051 1.3304708717021034 -1.5039029192923472 1.4124617271397462 -1.5039029192923472 1.513457085493398 C -1.5039029192923472 1.5161720144813993 -1.5039029192923472 1.518886943469401 -1.5039029192923472 1.5216018724574023 C -1.5039029192923472 1.5275747162310052 -1.5033599334947467 1.5330045742070082 -1.502273961899546 1.5384344321830112 C -1.4897852885547396 1.627484102989457 -1.4137672768907006 1.6959003134870922 -1.3209167055010531 1.6959003134870922 C -1.2199213471474004 1.6959003134870922 -1.1379304917097586 1.6139094580494504 -1.1379304917097586 1.5129140996957982 C -1.1379304917097586 1.4119187413421463 -1.2199213471474004 1.3304708717021034 -1.3209167055010531 1.3304708717021034 Z" fill="#029FAE" transform="matrix(1,0,0,1,0,0)" fill-rule="nonzero"></path></g><g clip-path="url(#SvgjsClipPath1000d0a7936e-8371-4f01-bfdf-34daee262520)"><path d=" M -1.8313233552453159 1.513457085493398 C -1.8313233552453159 1.513457085493398 -1.8313233552453159 1.513457085493398 -1.8313233552453159 1.513457085493398 C -1.8313233552453159 1.5248597872430039 -1.8324093268405164 1.5362624889926098 -1.8340382842333174 1.5471222049446154 C -1.7335859116772654 1.5449502617542143 -1.633676524918814 1.5422353327662126 -1.534853109755563 1.5395204037782113 C -1.5353960955531636 1.5335475600046085 -1.5359390813507634 1.527031730433405 -1.5364820671483637 1.5205159008622013 C -1.6336765249188137 1.5178009718742 -1.7324999400820646 1.515629028683799 -1.8313233552453159 1.513457085493398 Z" fill="#212245" transform="matrix(1,0,0,1,0,0)" fill-rule="nonzero"></path></g><g clip-path="url(#SvgjsClipPath1000d0a7936e-8371-4f01-bfdf-34daee262520)"><path d=" M -0.46734303167341285 -0.08346414524902546 C -1.0445369345225095 -0.08183518785622468 -1.7227261957252595 -0.07531935828502134 -2.300463084371958 -0.06826054291621753 C -2.300463084371958 -0.06826054291621753 -2.4791054117824496 -0.06554561392821623 -2.541005792708882 -0.06445964233301571 C -2.5703270257792967 -0.13884869660425408 -2.627883520324927 -0.28599784775393 -2.6501459380265384 -0.3413823991091585 C -2.6528608670145397 -0.34898420027556243 -2.6930418160369602 -0.44726462964121305 -2.6946707734297615 -0.45269448761721587 C -2.6946707734297615 -0.45269448761721587 -2.706616460976967 -0.4554094166052172 -2.706616460976967 -0.4554094166052172 C -2.706616460976967 -0.4554094166052172 -2.8792859446138563 -0.4928754366396366 -2.8792859446138563 -0.4928754366396366 C -3.043810641286741 -0.5281695134836548 -3.233855670446839 -0.5683504625060756 -3.398380367119724 -0.6009296103620924 C -3.1844439628652137 -0.5384862436380602 -2.9466161835162907 -0.47224197633082604 -2.73050783607138 -0.4130565243923955 C -2.6914128586441595 -0.30120145008673793 -2.630598449312928 -0.13124689543785018 -2.5920464576833084 -0.02264973591779429 C -2.5920464576833084 -0.02264973591779429 -2.5849876423145046 -0.0025592614065839125 -2.5849876423145046 -0.0025592614065839125 C -2.5849876423145046 -0.0025592614065839125 -2.562725224612893 -0.002016275608983653 -2.562725224612893 -0.002016275608983653 C -2.432408633188826 0.0001556675814174957 -2.16960350715029 0.004499553962219682 -2.039286915726223 0.005585525557420201 C -1.581006902551587 0.011558369331023277 -1.0048989712976897 0.015902255711825686 -0.5373881995638485 0.017531213104626242 C -0.6340396715366983 0.3308340183199877 -0.7985643682095835 0.8635030857658624 -0.8887000106112302 1.1626882602436166 C -1.2753058985026295 1.1637742318388171 -1.7433596560340705 1.1670321466244187 -2.122363742759066 1.170833047207621 C -2.122363742759066 1.170833047207621 -2.1875220384710996 1.1713760330052212 -2.2667979649207406 1.1724620046004217 C -2.3895127551784037 1.1740909619932225 -2.5464356506848844 1.1757199193860233 -2.5464356506848844 1.1757199193860233 C -2.5464356506848844 1.1757199193860233 -2.5719559831720975 1.176262905183624 -2.5719559831720975 1.176262905183624 C -2.617023804372921 1.2864890220964806 -2.6838110574777554 1.4520996903645664 -2.7283358928809784 1.562868793075023 C -2.5752138979576995 1.5601538640870216 -2.4177480166536185 1.557981920896621 -2.2591961637543365 1.554724006111019 C -2.261911092742338 1.541149361171012 -2.2635400501351386 1.527031730433405 -2.2635400501351386 1.5123711138981974 C -2.2635400501351386 1.509113199112595 -2.2635400501351386 1.5063982701245937 -2.2635400501351386 1.5031403553389926 C -2.3873408119880026 1.5009684121485916 -2.5100556022456657 1.49879646895819 -2.6300554635153275 1.4971675115653889 C -2.5974763156593106 1.422778457294151 -2.5518655086608875 1.319068169952497 -2.522544275590472 1.2511949452524624 C -1.9746716058117897 1.2582537606212658 -1.3600116829282727 1.2625976470020683 -0.8137679705423917 1.2647695901924694 L -0.8023652687927854 1.2283895417532507 C -0.8023652687927854 1.2283895417532507 -0.6101482964422864 0.6050418461081292 -0.6101482964422864 0.6050418461081292 C -0.6009175378830811 0.571376726656912 -0.40164175016377923 -0.07260442929702027 -0.400012792770978 -0.08455011684422642 C -0.3989268211757775 -0.08400713104662572 -0.46734303167341285 -0.08346414524902546 -0.46734303167341285 -0.08346414524902546 Z" fill="#212245" transform="matrix(1,0,0,1,0,0)" fill-rule="nonzero"></path></g><g clip-path="url(#SvgjsClipPath1000d0a7936e-8371-4f01-bfdf-34daee262520)"><path d=" M -0.8724104366832215 0.3509244928311984 L -2.315123700907165 0.39001947025841843 L -0.8979307691704346 0.4296574334832389 Z" fill="#212245" transform="matrix(1,0,0,1,0,0)" fill-rule="nonzero"></path></g><g clip-path="url(#SvgjsClipPath1000d0a7936e-8371-4f01-bfdf-34daee262520)"><path d=" M -0.9451705335616589 0.5469423657648996 L -1.9877032649541966 0.5860373431921196 L -0.9658039938704697 0.6251323206193399 Z" fill="#212245" transform="matrix(1,0,0,1,0,0)" fill-rule="nonzero"></path></g><g clip-path="url(#SvgjsClipPath1000d0a7936e-8371-4f01-bfdf-34daee262520)"><path d=" M -1.0841748977473307 0.8206072077554404 L -1.0374781191537061 0.8206072077554404 L -1.0168446588448958 0.7424172529010004 L -2.4334946047840265 0.7815122303282204 Z" fill="#212245" transform="matrix(1,0,0,1,0,0)" fill-rule="nonzero"></path></g></g><g><path d=" M 0.104736328125 0.04467773437500022 Q 0.1962890625 0.04467773437500022 0.2867431640625 0.04394531250000022 Q 0.377197265625 0.04321289062500022 0.45263671875 0.04211425781250022 Q 0.528076171875 0.04101562500000022 0.58154296875 0.03881835937500022 Q 0.635009765625 0.03662109375000022 0.654052734375 0.03295898437500022 L 0.6181640625 0.13037109375000022 Q 0.593994140625 0.12377929687500022 0.561767578125 0.11865234375000022 Q 0.533935546875 0.11425781250000022 0.4940185546875 0.11022949218750022 Q 0.4541015625 0.10620117187500022 0.402099609375 0.10620117187500022 Q 0.384521484375 0.10620117187500022 0.3599853515625 0.10729980468750022 Q 0.33544921875 0.10839843750000022 0.312744140625 0.10986328125000022 Q 0.286376953125 0.11132812500000022 0.25927734375 0.11279296875000022 L 0.25927734375 0.5126953125000002 Q 0.334716796875 0.5119628906250002 0.3955078125 0.5083007812500002 Q 0.456298828125 0.5046386718750002 0.498779296875 0.5009765625000002 Q 0.548583984375 0.4965820312500002 0.586669921875 0.4907226562500002 L 0.56396484375 0.5969238281250002 Q 0.513427734375 0.5903320312500002 0.460693359375 0.5844726562500002 Q 0.415283203125 0.5793457031250002 0.36181640625 0.5753173828125002 Q 0.308349609375 0.5712890625000002 0.25927734375 0.5712890625000002 L 0.25927734375 1.0305175781250002 Q 0.345703125 1.0305175781250002 0.418212890625 1.0231933593750002 Q 0.49072265625 1.0158691406250002 0.544921875 1.0063476562500002 Q 0.60791015625 0.9960937500000002 0.659912109375 0.9821777343750002 L 0.638671875 1.1008300781250002 Q 0.6298828125 1.1000976562500002 0.6123046875 1.0993652343750002 Q 0.5947265625 1.0986328125000002 0.5731201171875 1.0979003906250002 Q 0.551513671875 1.0971679687500002 0.5277099609375 1.0968017578125002 Q 0.50390625 1.0964355468750002 0.482666015625 1.0960693359375002 Q 0.46142578125 1.0957031250000002 0.4449462890625 1.0953369140625002 Q 0.428466796875 1.0949707031250002 0.421142578125 1.0949707031250002 L 0.104736328125 1.0949707031250002 L 0.104736328125 1.0920410156250002 Q 0.109130859375 1.0766601562500002 0.1131591796875 1.0539550781250002 Q 0.1171875 1.0312500000000002 0.1201171875 0.9975585937500002 Q 0.123046875 0.9638671875000002 0.12451171875 0.9173583984375002 Q 0.1259765625 0.8708496093750002 0.1259765625 0.8085937500000002 L 0.1259765625 0.3317871093750002 Q 0.1259765625 0.2695312500000002 0.12451171875 0.22302246093750022 Q 0.123046875 0.17651367187500022 0.1201171875 0.14245605468750022 Q 0.1171875 0.10839843750000022 0.1131591796875 0.08569335937500022 Q 0.109130859375 0.06298828125000022 0.104736328125 0.04760742187500022 L 0.104736328125 0.04467773437500022 L 0.104736328125 0.04467773437500022 M 1.4560546875 0.9389648437500002 L 1.40185546875 1.0693359375000002 Q 1.382080078125 1.0781250000000002 1.3564453125 1.0854492187500002 Q 1.330810546875 1.0927734375000002 1.3033447265625 1.0979003906250002 Q 1.27587890625 1.1030273437500002 1.248046875 1.1055908203125002 Q 1.22021484375 1.1081542968750002 1.1953125 1.1081542968750002 Q 1.106689453125 1.1081542968750002 1.0316162109375 1.0821533203125002 Q 0.9565429687500001 1.0561523437500002 0.9019775390625001 1.0063476562500002 Q 0.8474121093750001 0.9565429687500002 0.8166503906250001 0.8840332031250002 Q 0.7858886718750001 0.8115234375000002 0.7858886718750001 0.7185058593750002 Q 0.7858886718750001 0.6357421875000002 0.8177490234375001 0.5650634765625002 Q 0.8496093750000001 0.4943847656250002 0.9063720703125001 0.4423828125000002 Q 0.9631347656250001 0.3903808593750002 1.0400390625 0.3610839843750002 Q 1.116943359375 0.3317871093750002 1.20703125 0.3317871093750002 Q 1.248046875 0.3317871093750002 1.294921875 0.3387451171875002 Q 1.341796875 0.3457031250000002 1.37841796875 0.3566894531250002 L 1.430419921875 0.4812011718750002 L 1.421630859375 0.4863281250000002 Q 1.4033203125 0.4636230468750002 1.3780517578125 0.4449462890625002 Q 1.352783203125 0.4262695312500002 1.3223876953125 0.4130859375000002 Q 1.2919921875 0.3999023437500002 1.25830078125 0.3925781250000002 Q 1.224609375 0.3852539062500002 1.189453125 0.3852539062500002 Q 1.13232421875 0.3852539062500002 1.08544921875 0.4053955078125002 Q 1.03857421875 0.4255371093750002 1.0048828125 0.4636230468750002 Q 0.9711914062500001 0.5017089843750002 0.9525146484375001 0.5570068359375002 Q 0.9338378906250001 0.6123046875000002 0.9338378906250001 0.6826171875000002 Q 0.9338378906250001 0.7617187500000002 0.9517822265625001 0.8298339843750002 Q 0.9697265625000001 0.8979492187500002 1.0052490234375 0.9481201171875002 Q 1.040771484375 0.9982910156250002 1.0946044921875 1.0264892578125002 Q 1.1484375 1.0546875000000002 1.220947265625 1.0546875000000002 Q 1.254638671875 1.0546875000000002 1.2879638671875 1.0462646484375002 Q 1.3212890625 1.0378417968750002 1.3509521484375 1.0220947265625002 Q 1.380615234375 1.0063476562500002 1.405517578125 0.9843750000000002 Q 1.430419921875 0.9624023437500002 1.447265625 0.9345703125000002 L 1.4560546875 0.9389648437500002 M 1.54248046875 0.7185058593750002 Q 1.54248046875 0.6357421875000002 1.5732421875 0.5650634765625002 Q 1.60400390625 0.4943847656250002 1.6578369140625 0.4423828125000002 Q 1.711669921875 0.3903808593750002 1.784912109375 0.3610839843750002 Q 1.858154296875 0.3317871093750002 1.9423828125 0.3317871093750002 Q 2.025146484375 0.3317871093750002 2.0980224609375 0.3592529296875002 Q 2.1708984375 0.3867187500000002 2.22509765625 0.4372558593750002 Q 2.279296875 0.4877929687500002 2.3104248046875 0.5603027343750002 Q 2.341552734375 0.6328125000000002 2.341552734375 0.7229003906250002 Q 2.341552734375 0.7983398437500002 2.315185546875 0.8679199218750002 Q 2.288818359375 0.9375000000000002 2.237548828125 0.9909667968750002 Q 2.186279296875 1.0444335937500002 2.1119384765625 1.0762939453125002 Q 2.03759765625 1.1081542968750002 1.94091796875 1.1081542968750002 Q 1.85888671875 1.1081542968750002 1.786376953125 1.0810546875000002 Q 1.7138671875 1.0539550781250002 1.65966796875 1.0034179687500002 Q 1.60546875 0.9528808593750002 1.573974609375 0.8807373046875002 Q 1.54248046875 0.8085937500000002 1.54248046875 0.7185058593750002 M 1.957763671875 1.0546875000000002 Q 2.009765625 1.0546875000000002 2.0533447265625 1.0341796875000002 Q 2.096923828125 1.0136718750000002 2.12841796875 0.9748535156250002 Q 2.159912109375 0.9360351562500002 2.177490234375 0.8803710937500002 Q 2.195068359375 0.8247070312500002 2.195068359375 0.7543945312500002 Q 2.195068359375 0.6752929687500002 2.17822265625 0.6075439453125002 Q 2.161376953125 0.5397949218750002 2.1280517578125 0.4903564453125002 Q 2.0947265625 0.4409179687500002 2.044189453125 0.4130859375000002 Q 1.99365234375 0.3852539062500002 1.92626953125 0.3852539062500002 Q 1.874267578125 0.3852539062500002 1.8310546875 0.4053955078125002 Q 1.787841796875 0.4255371093750002 1.7559814453125 0.4636230468750002 Q 1.72412109375 0.5017089843750002 1.70654296875 0.5570068359375002 Q 1.68896484375 0.6123046875000002 1.68896484375 0.6826171875000002 Q 1.68896484375 0.7617187500000002 1.7061767578125 0.8298339843750002 Q 1.723388671875 0.8979492187500002 1.757080078125 0.9481201171875002 Q 1.790771484375 0.9982910156250002 1.8409423828125 1.0264892578125002 Q 1.89111328125 1.0546875000000002 1.957763671875 1.0546875000000002 M 2.51806640625 0.3317871093750002 Q 2.51806640625 0.2695312500000002 2.5166015625 0.22302246093750022 Q 2.51513671875 0.17651367187500022 2.51220703125 0.14245605468750022 Q 2.50927734375 0.10839843750000022 2.5052490234375 0.08569335937500022 Q 2.501220703125 0.06298828125000022 2.496826171875 0.04760742187500022 L 2.496826171875 0.04467773437500022 Q 2.511474609375 0.04541015625000022 2.527587890625 0.04541015625000022 Q 2.54150390625 0.04614257812500022 2.5587158203125 0.04614257812500022 Q 2.575927734375 0.04614257812500022 2.59423828125 0.04614257812500022 Q 2.62060546875 0.04614257812500022 2.6656494140625 0.04101562500000022 Q 2.710693359375 0.03588867187500022 2.78173828125 0.03588867187500022 Q 2.84765625 0.03588867187500022 2.9033203125 0.05310058593750022 Q 2.958984375 0.07031250000000022 2.9996337890625 0.10253906250000022 Q 3.040283203125 0.13476562500000022 3.0633544921875 0.18200683593750022 Q 3.08642578125 0.22924804687500022 3.08642578125 0.2893066406250002 Q 3.08642578125 0.3398437500000002 3.072509765625 0.3797607421875002 Q 3.05859375 0.4196777343750002 3.0333251953125 0.4493408203125002 Q 3.008056640625 0.4790039062500002 2.9725341796875 0.4991455078125002 Q 2.93701171875 0.5192871093750002 2.89453125 0.5310058593750002 Q 2.956787109375 0.5405273437500002 3.008056640625 0.5628662109375002 Q 3.059326171875 0.5852050781250002 3.0963134765625 0.6188964843750002 Q 3.13330078125 0.6525878906250002 3.1534423828125 0.6976318359375002 Q 3.173583984375 0.7426757812500002 3.173583984375 0.7976074218750002 Q 3.173583984375 0.9521484375000002 3.07177734375 1.0294189453125002 Q 2.969970703125 1.1066894531250002 2.76708984375 1.1066894531250002 Q 2.7451171875 1.1066894531250002 2.7158203125 1.1048583984375002 Q 2.6865234375 1.1030273437500002 2.6561279296875 1.1008300781250002 Q 2.625732421875 1.0986328125000002 2.596435546875 1.0968017578125002 Q 2.567138671875 1.0949707031250002 2.545166015625 1.0949707031250002 L 2.496826171875 1.0949707031250002 L 2.496826171875 1.0920410156250002 Q 2.501220703125 1.0766601562500002 2.5052490234375 1.0539550781250002 Q 2.50927734375 1.0312500000000002 2.51220703125 0.9975585937500002 Q 2.51513671875 0.9638671875000002 2.5166015625 0.9173583984375002 Q 2.51806640625 0.8708496093750002 2.51806640625 0.8085937500000002 L 2.51806640625 0.3317871093750002 M 2.786865234375 0.5756835937500002 Q 2.737060546875 0.5756835937500002 2.703369140625 0.5793457031250002 Q 2.669677734375 0.5830078125000002 2.6513671875 0.5866699218750002 L 2.6513671875 0.8085937500000002 Q 2.6513671875 0.8942871093750002 2.654296875 0.9499511718750002 Q 2.6572265625 1.0056152343750002 2.662353515625 1.0407714843750002 Q 2.690185546875 1.0444335937500002 2.718017578125 1.0473632812500002 Q 2.745849609375 1.0502929687500002 2.7626953125 1.0502929687500002 Q 2.899658203125 1.0502929687500002 2.9630126953125 0.9891357421875002 Q 3.0263671875 0.9279785156250002 3.0263671875 0.8012695312500002 Q 3.0263671875 0.7514648437500002 3.0113525390625 0.7100830078125002 Q 2.996337890625 0.6687011718750002 2.9666748046875 0.6386718750000002 Q 2.93701171875 0.6086425781250002 2.8919677734375 0.5921630859375002 Q 2.846923828125 0.5756835937500002 2.786865234375 0.5756835937500002 M 2.6513671875 0.5207519531250002 Q 2.671875 0.5229492187500002 2.68798828125 0.5233154296875002 Q 2.7041015625 0.5236816406250002 2.722412109375 0.5236816406250002 Q 2.772216796875 0.5236816406250002 2.813232421875 0.5093994140625002 Q 2.854248046875 0.4951171875000002 2.8831787109375 0.4665527343750002 Q 2.912109375 0.4379882812500002 2.92822265625 0.3951416015625002 Q 2.9443359375 0.3522949218750002 2.9443359375 0.2951660156250002 Q 2.9443359375 0.24755859375000022 2.9326171875 0.20874023437500022 Q 2.9208984375 0.16992187500000022 2.8978271484375 0.14245605468750022 Q 2.874755859375 0.11499023437500022 2.841064453125 0.10034179687500022 Q 2.807373046875 0.08569335937500022 2.76416015625 0.08569335937500022 Q 2.736328125 0.08569335937500022 2.7154541015625 0.08789062500000022 Q 2.694580078125 0.09008789062500022 2.679931640625 0.09301757812500022 Q 2.6630859375 0.09594726562500022 2.6513671875 0.10034179687500022 L 2.6513671875 0.5207519531250002 M 3.35009765625 0.6313476562500002 Q 3.35009765625 0.5690917968750002 3.3482666015625 0.5225830078125002 Q 3.346435546875 0.4760742187500002 3.3438720703125 0.4423828125000002 Q 3.34130859375 0.4086914062500002 3.3372802734375 0.3859863281250002 Q 3.333251953125 0.3632812500000002 3.328857421875 0.3479003906250002 L 3.328857421875 0.3449707031250002 L 3.498046875 0.3449707031250002 L 3.498046875 0.3479003906250002 Q 3.49365234375 0.3632812500000002 3.489990234375 0.3859863281250002 Q 3.486328125 0.4086914062500002 3.4833984375 0.4423828125000002 Q 3.48046875 0.4760742187500002 3.47900390625 0.5225830078125002 Q 3.4775390625 0.5690917968750002 3.4775390625 0.6313476562500002 L 3.4775390625 0.8085937500000002 Q 3.4775390625 0.8708496093750002 3.47900390625 0.9173583984375002 Q 3.48046875 0.9638671875000002 3.4833984375 0.9975585937500002 Q 3.486328125 1.0312500000000002 3.489990234375 1.0539550781250002 Q 3.49365234375 1.0766601562500002 3.498046875 1.0920410156250002 L 3.498046875 1.0949707031250002 L 3.328857421875 1.0949707031250002 L 3.328857421875 1.0920410156250002 Q 3.333251953125 1.0766601562500002 3.3372802734375 1.0539550781250002 Q 3.34130859375 1.0312500000000002 3.3438720703125 0.9975585937500002 Q 3.346435546875 0.9638671875000002 3.3482666015625 0.9173583984375002 Q 3.35009765625 0.8708496093750002 3.35009765625 0.8085937500000002 L 3.35009765625 0.6313476562500002 M 3.334716796875 0.12304687500000022 Q 3.334716796875 0.10693359375000022 3.3409423828125 0.09265136718750022 Q 3.34716796875 0.07836914062500022 3.357421875 0.06774902343750022 Q 3.36767578125 0.05712890625000022 3.3819580078125 0.05090332031250022 Q 3.396240234375 0.04467773437500022 3.4130859375 0.04467773437500022 Q 3.429931640625 0.04467773437500022 3.4442138671875 0.05090332031250022 Q 3.45849609375 0.05712890625000022 3.4691162109375 0.06774902343750022 Q 3.479736328125 0.07836914062500022 3.4859619140625 0.09265136718750022 Q 3.4921875 0.10693359375000022 3.4921875 0.12304687500000022 Q 3.4921875 0.15673828125000022 3.469482421875 0.17944335937500022 Q 3.44677734375 0.20214843750000022 3.4130859375 0.20214843750000022 Q 3.396240234375 0.20214843750000022 3.3819580078125 0.19592285156250022 Q 3.36767578125 0.18969726562500022 3.357421875 0.17907714843750022 Q 3.34716796875 0.16845703125000022 3.3409423828125 0.15417480468750022 Q 3.334716796875 0.13989257812500022 3.334716796875 0.12304687500000022 M 4.040771484375 0.3317871093750002 Q 4.07080078125 0.3317871093750002 4.100830078125 0.3369140625000002 Q 4.130859375 0.3420410156250002 4.159423828125 0.3515625000000002 Q 4.18798828125 0.3610839843750002 4.213623046875 0.3750000000000002 Q 4.2392578125 0.3889160156250002 4.259765625 0.4064941406250002 L 4.259765625 0.2863769531250002 Q 4.259765625 0.22412109375000022 4.25830078125 0.17761230468750022 Q 4.2568359375 0.13110351562500022 4.25390625 0.09741210937500022 Q 4.2509765625 0.06372070312500022 4.247314453125 0.04101562500000022 Q 4.24365234375 0.018310546875000222 4.2392578125 0.002929687500000222 L 4.2392578125 2.220446049250313e-16 L 4.408447265625 2.220446049250313e-16 L 4.408447265625 0.002929687500000222 Q 4.404052734375 0.018310546875000222 4.4000244140625 0.04101562500000022 Q 4.39599609375 0.06372070312500022 4.3934326171875 0.09741210937500022 Q 4.390869140625 0.13110351562500022 4.3890380859375 0.17761230468750022 Q 4.38720703125 0.22412109375000022 4.38720703125 0.2863769531250002 L 4.38720703125 0.8085937500000002 Q 4.38720703125 0.8708496093750002 4.3890380859375 0.9173583984375002 Q 4.390869140625 0.9638671875000002 4.3934326171875 0.9975585937500002 Q 4.39599609375 1.0312500000000002 4.4000244140625 1.0539550781250002 Q 4.404052734375 1.0766601562500002 4.408447265625 1.0920410156250002 L 4.408447265625 1.0949707031250002 L 4.24658203125 1.0949707031250002 L 4.24658203125 1.0920410156250002 Q 4.248779296875 1.0861816406250002 4.250244140625 1.0748291015625002 Q 4.251708984375 1.0634765625000002 4.25390625 1.0466308593750002 Q 4.216552734375 1.0700683593750002 4.16015625 1.0891113281250002 Q 4.103759765625 1.1081542968750002 4.029052734375 1.1081542968750002 Q 3.94189453125 1.1081542968750002 3.870849609375 1.0810546875000002 Q 3.7998046875 1.0539550781250002 3.7496337890625 1.0034179687500002 Q 3.699462890625 0.9528808593750002 3.67236328125 0.8807373046875002 Q 3.645263671875 0.8085937500000002 3.645263671875 0.7185058593750002 Q 3.645263671875 0.6357421875000002 3.674560546875 0.5650634765625002 Q 3.703857421875 0.4943847656250002 3.756591796875 0.4423828125000002 Q 3.809326171875 0.3903808593750002 3.8818359375 0.3610839843750002 Q 3.954345703125 0.3317871093750002 4.040771484375 0.3317871093750002 M 4.259765625 0.5354003906250002 Q 4.23046875 0.4584960937500002 4.1759033203125 0.4218750000000002 Q 4.121337890625 0.3852539062500002 4.05322265625 0.3852539062500002 Q 3.99609375 0.3852539062500002 3.94775390625 0.4053955078125002 Q 3.8994140625 0.4255371093750002 3.864990234375 0.4636230468750002 Q 3.83056640625 0.5017089843750002 3.8111572265625 0.5570068359375002 Q 3.791748046875 0.6123046875000002 3.791748046875 0.6826171875000002 Q 3.791748046875 0.7617187500000002 3.809326171875 0.8298339843750002 Q 3.826904296875 0.8979492187500002 3.8609619140625 0.9481201171875002 Q 3.89501953125 0.9982910156250002 3.945556640625 1.0264892578125002 Q 3.99609375 1.0546875000000002 4.06201171875 1.0546875000000002 Q 4.096435546875 1.0546875000000002 4.12646484375 1.0466308593750002 Q 4.156494140625 1.0385742187500002 4.181396484375 1.0261230468750002 Q 4.206298828125 1.0136718750000002 4.225341796875 0.9986572265625002 Q 4.244384765625 0.9836425781250002 4.2568359375 0.9689941406250002 Q 4.25830078125 0.9375000000000002 4.259033203125 0.8972167968750002 Q 4.259765625 0.8569335937500002 4.259765625 0.8085937500000002 L 4.259765625 0.5354003906250002" fill="#212245" fill-rule="nonzero"></path></g><g></g></g><defs><clipPath id="SvgjsClipPath1001"><path d=" M -3.398380367119724 -0.6009296103620924 h 2.998380367119724 v 2.296829923849185 h -2.998380367119724 Z"></path></clipPath><clipPath id="SvgjsClipPath1000d0a7936e-8371-4f01-bfdf-34daee262520"><path d=" M -3.398380367119724 -0.6009296103620924 L -0.3999999999999999 -0.6009296103620924 L -0.3999999999999999 1.6959003134870927 L -3.398380367119724 1.6959003134870927 Z"></path></clipPath></defs></svg>